<svg width="48" height="48" viewBox="0 0 48 48" fill="none" xmlns="http://www.w3.org/2000/svg">
<path d="M0 8C0 3.58172 3.58172 0 8 0H40C44.4183 0 48 3.58172 48 8V40C48 44.4183 44.4183 48 40 48H8C3.58172 48 0 44.4183 0 40V8Z" fill="url(#paint0_linear_62_90)"/>
<path d="M10.5 28.5V27H9V25.5H7.5V24H6V18H9V22.5H10.5V24H12V22.5H13.5V18H16.5V24H15V25.5H13.5V27H12V28.5H10.5ZM21 28.5V27H19.5V25.5H18V21H19.5V19.5H21V18H28.5V19.5H22.5V21H21V25.5H22.5V27H25.5V24H24V22.5H28.5V28.5H21ZM31.5 28.5V27H30V25.5H33V27H37.5V24H31.5V22.5H30V19.5H31.5V18H39V19.5H40.5V21H37.5V19.5H33V22.5H39V24H40.5V27H39V28.5H31.5Z" fill="white"/>
<defs>
<linearGradient id="paint0_linear_62_90" x1="0" y1="24.0004" x2="48" y2="24.0004" gradientUnits="userSpaceOnUse">
<stop stop-color="#EE7CCA"/>
<stop offset="1" stop-color="#CF8977"/>
</linearGradient>
</defs>
</svg>
